# xmcd CD database file
#
# Track frame offsets:
#	150
#	25910
#	50840
#	80708
#	111595
#	142120
#	180100
#	214163
#	239030
#	281200
#
# Disc length: 4119 seconds
#
# Revision: 1
# Processed by: cddbd v1.5.1PL0 Copyright (c) Steve Scherf et al.
# Submitted via: CDex 1.51
#
DISCID=9f10150a
DTITLE=Milt Jackson - Centerpiece
DYEAR=1976
DGENRE=Jazz
TTITLE0=Centerpiece
TTITLE1=Holy Land
TTITLE2=Smile
TTITLE3=Cherry
TTITLE4=Little Girl Blue
TTITLE5=Someday My Prince Will Come
TTITLE6=Speed Ball
TTITLE7=Blue Bossa
TTITLE8=Watch What Happens
TTITLE9=Organ Grinder's Swing
EXTD=YEAR: 1976
EXTT0=
EXTT1=
EXTT2=
EXTT3=
EXTT4=
EXTT5=
EXTT6=
EXTT7=
EXTT8=
EXTT9=
PLAYORDER=
